<svg width="416" height="472" viewBox="0 0 416 472" fill="none" xmlns="http://www.w3.org/2000/svg">
<g clip-path="url(#clip0_17_39)">
<path d="M416 353.719V117.906L208 0L0 117.906V353.719L208 471.625L416 353.719Z" fill="url(#paint0_linear_17_39)"/>
</g>
<path d="M55.2441 243.913C54.7228 244.23 54.1221 244.536 53.4421 244.831C52.7621 245.125 52.0141 245.352 51.1981 245.511C50.3821 245.692 49.4981 245.783 48.5461 245.783C46.7101 245.783 45.0441 245.465 43.5481 244.831C42.0521 244.173 40.7714 243.289 39.7061 242.179C38.6408 241.045 37.8134 239.753 37.2241 238.303C36.6574 236.829 36.3741 235.265 36.3741 233.611C36.3741 231.843 36.6801 230.199 37.2921 228.681C37.9041 227.162 38.7654 225.836 39.8761 224.703C40.9868 223.569 42.2788 222.685 43.7521 222.051C45.2254 221.416 46.8234 221.099 48.5461 221.099C49.8154 221.099 51.0054 221.269 52.1161 221.609C53.2268 221.949 54.2354 222.391 55.1421 222.935L54.4281 224.465C53.6348 223.966 52.7394 223.547 51.7421 223.207C50.7448 222.867 49.6908 222.697 48.5801 222.697C47.1521 222.697 45.8034 222.98 44.5341 223.547C43.2648 224.091 42.1428 224.861 41.1681 225.859C40.2161 226.833 39.4681 227.978 38.9241 229.293C38.3801 230.607 38.1081 232.024 38.1081 233.543C38.1081 234.993 38.3461 236.365 38.8221 237.657C39.3208 238.949 40.0234 240.082 40.9301 241.057C41.8594 242.031 42.9701 242.802 44.2621 243.369C45.5541 243.913 46.9934 244.185 48.5801 244.185C49.7588 244.185 50.8354 244.026 51.8101 243.709C52.8074 243.369 53.6914 242.949 54.4621 242.451L55.2441 243.913ZM69.4019 233.475C69.4019 231.775 69.7193 230.188 70.3539 228.715C70.9886 227.219 71.8726 225.904 73.0059 224.771C74.1393 223.615 75.4426 222.719 76.9159 222.085C78.4119 221.427 80.0099 221.099 81.7099 221.099C83.4099 221.099 85.0079 221.427 86.5039 222.085C87.9999 222.719 89.3146 223.615 90.4479 224.771C91.5813 225.904 92.4653 227.219 93.0999 228.715C93.7573 230.188 94.0859 231.775 94.0859 233.475C94.0859 235.175 93.7573 236.773 93.0999 238.269C92.4653 239.742 91.5813 241.045 90.4479 242.179C89.3146 243.312 87.9999 244.196 86.5039 244.831C85.0079 245.465 83.4099 245.783 81.7099 245.783C80.0099 245.783 78.4119 245.477 76.9159 244.865C75.4426 244.253 74.1393 243.391 73.0059 242.281C71.8726 241.17 70.9886 239.867 70.3539 238.371C69.7193 236.875 69.4019 235.243 69.4019 233.475ZM71.1019 233.509C71.1019 234.982 71.3739 236.365 71.9179 237.657C72.4619 238.949 73.2213 240.082 74.1959 241.057C75.1706 242.031 76.2926 242.802 77.5619 243.369C78.8539 243.913 80.2253 244.185 81.6759 244.185C83.1719 244.185 84.5659 243.913 85.8579 243.369C87.1499 242.802 88.2833 242.031 89.2579 241.057C90.2326 240.082 90.9919 238.949 91.5359 237.657C92.1026 236.365 92.3859 234.971 92.3859 233.475C92.3859 232.001 92.1026 230.619 91.5359 229.327C90.9919 228.012 90.2326 226.867 89.2579 225.893C88.2833 224.895 87.1499 224.113 85.8579 223.547C84.5659 222.98 83.1833 222.697 81.7099 222.697C80.2139 222.697 78.8199 222.991 77.5279 223.581C76.2359 224.147 75.1026 224.929 74.1279 225.927C73.1759 226.924 72.4279 228.08 71.8839 229.395C71.3626 230.687 71.1019 232.058 71.1019 233.509ZM108.24 233.475C108.24 231.775 108.558 230.188 109.192 228.715C109.827 227.219 110.711 225.904 111.844 224.771C112.978 223.615 114.281 222.719 115.754 222.085C117.25 221.427 118.848 221.099 120.548 221.099C122.248 221.099 123.846 221.427 125.342 222.085C126.838 222.719 128.153 223.615 129.286 224.771C130.42 225.904 131.304 227.219 131.938 228.715C132.596 230.188 132.924 231.775 132.924 233.475C132.924 235.175 132.596 236.773 131.938 238.269C131.304 239.742 130.42 241.045 129.286 242.179C128.153 243.312 126.838 244.196 125.342 244.831C123.846 245.465 122.248 245.783 120.548 245.783C118.848 245.783 117.25 245.477 115.754 244.865C114.281 244.253 112.978 243.391 111.844 242.281C110.711 241.17 109.827 239.867 109.192 238.371C108.558 236.875 108.24 235.243 108.24 233.475ZM109.94 233.509C109.94 234.982 110.212 236.365 110.756 237.657C111.3 238.949 112.06 240.082 113.034 241.057C114.009 242.031 115.131 242.802 116.4 243.369C117.692 243.913 119.064 244.185 120.514 244.185C122.01 244.185 123.404 243.913 124.696 243.369C125.988 242.802 127.122 242.031 128.096 241.057C129.071 240.082 129.83 238.949 130.374 237.657C130.941 236.365 131.224 234.971 131.224 233.475C131.224 232.001 130.941 230.619 130.374 229.327C129.83 228.012 129.071 226.867 128.096 225.893C127.122 224.895 125.988 224.113 124.696 223.547C123.404 222.98 122.022 222.697 120.548 222.697C119.052 222.697 117.658 222.991 116.366 223.581C115.074 224.147 113.941 224.929 112.966 225.927C112.014 226.924 111.266 228.08 110.722 229.395C110.201 230.687 109.94 232.058 109.94 233.509ZM154.185 221.371C155.681 221.371 156.984 221.631 158.095 222.153C159.228 222.651 160.101 223.411 160.713 224.431C161.347 225.428 161.665 226.686 161.665 228.205C161.665 229.111 161.517 229.995 161.223 230.857C160.951 231.695 160.497 232.455 159.863 233.135C159.251 233.815 158.457 234.359 157.483 234.767C156.531 235.175 155.375 235.379 154.015 235.379H150.275V245.511H148.609V221.371H154.185ZM154.015 233.781C155.193 233.781 156.168 233.599 156.939 233.237C157.732 232.851 158.344 232.375 158.775 231.809C159.228 231.219 159.545 230.607 159.727 229.973C159.931 229.338 160.033 228.749 160.033 228.205C160.033 227.434 159.908 226.731 159.659 226.097C159.409 225.462 159.035 224.918 158.537 224.465C158.061 223.989 157.471 223.626 156.769 223.377C156.066 223.105 155.261 222.969 154.355 222.969H150.275V233.781H154.015ZM176.955 221.371H191.847V222.969H178.621V232.557H190.521V234.155H178.621V243.913H192.323V245.511H176.955V221.371ZM213.698 221.371C214.604 221.371 215.5 221.507 216.384 221.779C217.29 222.028 218.106 222.436 218.832 223.003C219.58 223.547 220.18 224.249 220.634 225.111C221.087 225.972 221.314 227.003 221.314 228.205C221.314 229.111 221.178 229.995 220.906 230.857C220.634 231.695 220.192 232.455 219.58 233.135C218.968 233.815 218.174 234.359 217.2 234.767C216.225 235.175 215.024 235.379 213.596 235.379H209.856V245.511H208.19V221.371H213.698ZM213.494 233.781C214.695 233.781 215.692 233.611 216.486 233.271C217.279 232.931 217.902 232.489 218.356 231.945C218.809 231.401 219.126 230.811 219.308 230.177C219.512 229.519 219.614 228.885 219.614 228.273C219.614 227.547 219.478 226.867 219.206 226.233C218.956 225.598 218.582 225.043 218.084 224.567C217.585 224.068 216.984 223.683 216.282 223.411C215.579 223.116 214.797 222.969 213.936 222.969H209.856V233.781H213.494ZM216.962 234.529L223.66 245.511H221.722L214.99 234.563L216.962 234.529ZM237.117 245.511L247.317 220.317H247.453L257.653 245.511H255.783L246.909 222.969L248.065 222.323L238.783 245.511H237.117ZM242.047 235.957H252.757L253.233 237.521H241.639L242.047 235.957ZM269.02 221.371H284.83V222.969H277.724V245.511H276.058V222.969H269.02V221.371ZM300.101 221.371H301.767V245.511H300.101V221.371ZM317.454 233.475C317.454 231.775 317.772 230.188 318.406 228.715C319.041 227.219 319.925 225.904 321.058 224.771C322.192 223.615 323.495 222.719 324.968 222.085C326.464 221.427 328.062 221.099 329.762 221.099C331.462 221.099 333.06 221.427 334.556 222.085C336.052 222.719 337.367 223.615 338.5 224.771C339.634 225.904 340.518 227.219 341.152 228.715C341.81 230.188 342.138 231.775 342.138 233.475C342.138 235.175 341.81 236.773 341.152 238.269C340.518 239.742 339.634 241.045 338.5 242.179C337.367 243.312 336.052 244.196 334.556 244.831C333.06 245.465 331.462 245.783 329.762 245.783C328.062 245.783 326.464 245.477 324.968 244.865C323.495 244.253 322.192 243.391 321.058 242.281C319.925 241.17 319.041 239.867 318.406 238.371C317.772 236.875 317.454 235.243 317.454 233.475ZM319.154 233.509C319.154 234.982 319.426 236.365 319.97 237.657C320.514 238.949 321.274 240.082 322.248 241.057C323.223 242.031 324.345 242.802 325.614 243.369C326.906 243.913 328.278 244.185 329.728 244.185C331.224 244.185 332.618 243.913 333.91 243.369C335.202 242.802 336.336 242.031 337.31 241.057C338.285 240.082 339.044 238.949 339.588 237.657C340.155 236.365 340.438 234.971 340.438 233.475C340.438 232.001 340.155 230.619 339.588 229.327C339.044 228.012 338.285 226.867 337.31 225.893C336.336 224.895 335.202 224.113 333.91 223.547C332.618 222.98 331.236 222.697 329.762 222.697C328.266 222.697 326.872 222.991 325.58 223.581C324.288 224.147 323.155 224.929 322.18 225.927C321.228 226.924 320.48 228.08 319.936 229.395C319.415 230.687 319.154 232.058 319.154 233.509ZM378.019 246.089L358.979 224.635L359.421 224.295L359.455 245.511H357.823V220.861H357.925L376.965 242.485L376.523 242.621L376.489 221.371H378.087V246.089H378.019Z" fill="white"/>
<defs>
<linearGradient id="paint0_linear_17_39" x1="208" y1="0" x2="208" y2="471.625" gradientUnits="userSpaceOnUse">
<stop stop-color="#3C6E89"/>
<stop offset="0.06" stop-color="#3C6E80"/>
<stop offset="0.16" stop-color="#3C6E75"/>
<stop offset="0.28" stop-color="#3C6E71"/>
<stop offset="0.81" stop-color="#284B63"/>
<stop offset="1" stop-color="#284B63"/>
</linearGradient>
<clipPath id="clip0_17_39">
<rect width="416" height="471.625" fill="white"/>
</clipPath>
</defs>
</svg>
