<svg width="416" height="472" viewBox="0 0 416 472" fill="none" xmlns="http://www.w3.org/2000/svg">
<g clip-path="url(#clip0_3_27)">
<path d="M416 353.719V117.906L208 0L0 117.906V353.719L208 471.625L416 353.719Z" fill="url(#paint0_linear_3_27)"/>
<path d="M57.6055 231.196H59.2715V255.336H57.6055V231.196ZM96.6848 255.914L77.6448 234.46L78.0868 234.12L78.1208 255.336H76.4888V230.686H76.5908L95.6308 252.31L95.1888 252.446L95.1548 231.196H96.7528V255.914H96.6848ZM134.162 255.914L115.122 234.46L115.564 234.12L115.598 255.336H113.966V230.686H114.068L133.108 252.31L132.666 252.446L132.632 231.196H134.23V255.914H134.162ZM149.913 243.3C149.913 241.6 150.23 240.013 150.865 238.54C151.5 237.044 152.384 235.729 153.517 234.596C154.65 233.44 155.954 232.545 157.427 231.91C158.923 231.253 160.521 230.924 162.221 230.924C163.921 230.924 165.519 231.253 167.015 231.91C168.511 232.545 169.826 233.44 170.959 234.596C172.092 235.729 172.976 237.044 173.611 238.54C174.268 240.013 174.597 241.6 174.597 243.3C174.597 245 174.268 246.598 173.611 248.094C172.976 249.567 172.092 250.871 170.959 252.004C169.826 253.137 168.511 254.021 167.015 254.656C165.519 255.291 163.921 255.608 162.221 255.608C160.521 255.608 158.923 255.302 157.427 254.69C155.954 254.078 154.65 253.217 153.517 252.106C152.384 250.995 151.5 249.692 150.865 248.196C150.23 246.7 149.913 245.068 149.913 243.3ZM151.613 243.334C151.613 244.807 151.885 246.19 152.429 247.482C152.973 248.774 153.732 249.907 154.707 250.882C155.682 251.857 156.804 252.627 158.073 253.194C159.365 253.738 160.736 254.01 162.187 254.01C163.683 254.01 165.077 253.738 166.369 253.194C167.661 252.627 168.794 251.857 169.769 250.882C170.744 249.907 171.503 248.774 172.047 247.482C172.614 246.19 172.897 244.796 172.897 243.3C172.897 241.827 172.614 240.444 172.047 239.152C171.503 237.837 170.744 236.693 169.769 235.718C168.794 234.721 167.661 233.939 166.369 233.372C165.077 232.805 163.694 232.522 162.221 232.522C160.725 232.522 159.331 232.817 158.039 233.406C156.747 233.973 155.614 234.755 154.639 235.752C153.687 236.749 152.939 237.905 152.395 239.22C151.874 240.512 151.613 241.883 151.613 243.334ZM188.682 231.196L197.59 253.806L196.672 253.67L205.376 231.196H207.28L197.012 256.458L186.744 231.196H188.682ZM217.416 255.336L227.616 230.142H227.752L237.952 255.336H236.082L227.208 232.794L228.364 232.148L219.082 255.336H217.416ZM222.346 245.782H233.056L233.532 247.346H221.938L222.346 245.782ZM249.319 231.196H265.129V232.794H258.023V255.336H256.357V232.794H249.319V231.196ZM280.4 231.196H282.066V255.336H280.4V231.196ZM297.753 243.3C297.753 241.6 298.07 240.013 298.705 238.54C299.34 237.044 300.224 235.729 301.357 234.596C302.49 233.44 303.794 232.545 305.267 231.91C306.763 231.253 308.361 230.924 310.061 230.924C311.761 230.924 313.359 231.253 314.855 231.91C316.351 232.545 317.666 233.44 318.799 234.596C319.932 235.729 320.816 237.044 321.451 238.54C322.108 240.013 322.437 241.6 322.437 243.3C322.437 245 322.108 246.598 321.451 248.094C320.816 249.567 319.932 250.871 318.799 252.004C317.666 253.137 316.351 254.021 314.855 254.656C313.359 255.291 311.761 255.608 310.061 255.608C308.361 255.608 306.763 255.302 305.267 254.69C303.794 254.078 302.49 253.217 301.357 252.106C300.224 250.995 299.34 249.692 298.705 248.196C298.07 246.7 297.753 245.068 297.753 243.3ZM299.453 243.334C299.453 244.807 299.725 246.19 300.269 247.482C300.813 248.774 301.572 249.907 302.547 250.882C303.522 251.857 304.644 252.627 305.913 253.194C307.205 253.738 308.576 254.01 310.027 254.01C311.523 254.01 312.917 253.738 314.209 253.194C315.501 252.627 316.634 251.857 317.609 250.882C318.584 249.907 319.343 248.774 319.887 247.482C320.454 246.19 320.737 244.796 320.737 243.3C320.737 241.827 320.454 240.444 319.887 239.152C319.343 237.837 318.584 236.693 317.609 235.718C316.634 234.721 315.501 233.939 314.209 233.372C312.917 232.805 311.534 232.522 310.061 232.522C308.565 232.522 307.171 232.817 305.879 233.406C304.587 233.973 303.454 234.755 302.479 235.752C301.527 236.749 300.779 237.905 300.235 239.22C299.714 240.512 299.453 241.883 299.453 243.334ZM358.317 255.914L339.277 234.46L339.719 234.12L339.753 255.336H338.121V230.686H338.223L357.263 252.31L356.821 252.446L356.787 231.196H358.385V255.914H358.317Z" fill="white"/>
</g>
<defs>
<linearGradient id="paint0_linear_3_27" x1="208" y1="0" x2="208" y2="471.625" gradientUnits="userSpaceOnUse">
<stop stop-color="#3C6E89"/>
<stop offset="0.06" stop-color="#3C6E80"/>
<stop offset="0.16" stop-color="#3C6E75"/>
<stop offset="0.28" stop-color="#3C6E71"/>
<stop offset="0.81" stop-color="#284B63"/>
<stop offset="1" stop-color="#284B63"/>
</linearGradient>
<clipPath id="clip0_3_27">
<rect width="416" height="471.625" fill="white"/>
</clipPath>
</defs>
</svg>
