<svg width="416" height="472" viewBox="0 0 416 472" fill="none" xmlns="http://www.w3.org/2000/svg">
<g clip-path="url(#clip0_3_23)">
<path d="M416 353.798V117.986L208 0.0795898L0 117.986V353.798L208 471.705L416 353.798Z" fill="url(#paint0_linear_3_23)"/>
<path d="M100.386 236V208.412H100.424L113.724 227.298L112.926 227.184L126.188 208.412H126.226V236H124.402V212.706L124.554 213.618L113.306 229.464H113.23L101.906 213.618L102.21 212.782V236H100.386ZM146.147 236L157.547 207.842H157.699L169.099 236H167.009L157.091 210.806L158.383 210.084L148.009 236H146.147ZM151.657 225.322H163.627L164.159 227.07H151.201L151.657 225.322ZM195.17 209.02C196.183 209.02 197.184 209.172 198.172 209.476C199.185 209.755 200.097 210.211 200.908 210.844C201.744 211.452 202.415 212.237 202.922 213.2C203.428 214.163 203.682 215.315 203.682 216.658C203.682 217.671 203.53 218.659 203.226 219.622C202.922 220.559 202.428 221.408 201.744 222.168C201.06 222.928 200.173 223.536 199.084 223.992C197.994 224.448 196.652 224.676 195.056 224.676H190.876V236H189.014V209.02H195.17ZM194.942 222.89C196.284 222.89 197.399 222.7 198.286 222.32C199.172 221.94 199.869 221.446 200.376 220.838C200.882 220.23 201.237 219.571 201.44 218.862C201.668 218.127 201.782 217.418 201.782 216.734C201.782 215.923 201.63 215.163 201.326 214.454C201.047 213.745 200.629 213.124 200.072 212.592C199.514 212.035 198.843 211.604 198.058 211.3C197.272 210.971 196.398 210.806 195.436 210.806H190.876V222.89H194.942ZM198.818 223.726L206.304 236H204.138L196.614 223.764L198.818 223.726ZM228.64 221.18L228.564 222.51L228.678 222.168L242.016 209.02H244.41L233.238 220.078L245.664 236H243.308L231.87 221.256L228.602 224.372L228.64 236H226.74V209.02H228.64V221.18ZM265.321 209.02H281.965V210.806H267.183V221.522H280.483V223.308H267.183V234.214H282.497V236H265.321V209.02ZM301.104 209.02H318.774V210.806H310.832V236H308.97V210.806H301.104V209.02ZM103.448 257.02H105.31V282.214H120.092V284H103.448V257.02ZM140.024 257.02H156.668V258.806H141.886V269.522H155.186V271.308H141.886V282.214H157.2V284H140.024V257.02ZM175.618 284L187.018 255.842H187.17L198.57 284H196.48L186.562 258.806L187.854 258.084L177.48 284H175.618ZM181.128 273.322H193.098L193.63 275.07H180.672L181.128 273.322ZM218.484 284V257.02H225.134C227.743 257.02 229.96 257.438 231.784 258.274C233.633 259.085 235.128 260.161 236.268 261.504C237.408 262.847 238.244 264.316 238.776 265.912C239.308 267.508 239.574 269.091 239.574 270.662C239.574 272.714 239.219 274.563 238.51 276.21C237.8 277.831 236.825 279.225 235.584 280.39C234.368 281.555 232.974 282.455 231.404 283.088C229.833 283.696 228.174 284 226.426 284H218.484ZM220.346 282.214H225.932C227.553 282.214 229.073 281.948 230.492 281.416C231.91 280.884 233.152 280.111 234.216 279.098C235.305 278.085 236.154 276.869 236.762 275.45C237.37 274.006 237.674 272.372 237.674 270.548C237.674 269.003 237.408 267.533 236.876 266.14C236.369 264.721 235.596 263.467 234.558 262.378C233.519 261.289 232.24 260.427 230.72 259.794C229.2 259.161 227.426 258.844 225.4 258.844H220.346V282.214ZM260.144 257.02H276.788V258.806H262.006V269.522H275.306V271.308H262.006V282.214H277.32V284H260.144V257.02ZM304.25 257.02C305.263 257.02 306.264 257.172 307.252 257.476C308.265 257.755 309.177 258.211 309.988 258.844C310.824 259.452 311.495 260.237 312.002 261.2C312.508 262.163 312.762 263.315 312.762 264.658C312.762 265.671 312.61 266.659 312.306 267.622C312.002 268.559 311.508 269.408 310.824 270.168C310.14 270.928 309.253 271.536 308.164 271.992C307.074 272.448 305.732 272.676 304.136 272.676H299.956V284H298.094V257.02H304.25ZM304.022 270.89C305.364 270.89 306.479 270.7 307.366 270.32C308.252 269.94 308.949 269.446 309.456 268.838C309.962 268.23 310.317 267.571 310.52 266.862C310.748 266.127 310.862 265.418 310.862 264.734C310.862 263.923 310.71 263.163 310.406 262.454C310.127 261.745 309.709 261.124 309.152 260.592C308.594 260.035 307.923 259.604 307.138 259.3C306.352 258.971 305.478 258.806 304.516 258.806H299.956V270.89H304.022ZM307.898 271.726L315.384 284H313.218L305.694 271.764L307.898 271.726Z" fill="white"/>
</g>
<defs>
<linearGradient id="paint0_linear_3_23" x1="208" y1="0.0795898" x2="208" y2="471.705" gradientUnits="userSpaceOnUse">
<stop stop-color="#3C6E89"/>
<stop offset="0.06" stop-color="#3C6E80"/>
<stop offset="0.16" stop-color="#3C6E75"/>
<stop offset="0.28" stop-color="#3C6E71"/>
<stop offset="0.81" stop-color="#284B63"/>
<stop offset="1" stop-color="#284B63"/>
</linearGradient>
<clipPath id="clip0_3_23">
<rect width="416" height="471.625" fill="white" transform="translate(0 0.0795898)"/>
</clipPath>
</defs>
</svg>
